<?xml version="1.0" encoding="iso-8859-1"?>
<!-- Generator: Adobe Illustrator 18.0.0, SVG Export Plug-In . SVG Version: 6.00 Build 0)  -->
<!DOCTYPE svg PUBLIC "-//W3C//DTD SVG 1.1//EN" "http://www.w3.org/Graphics/SVG/1.1/DTD/svg11.dtd">
<svg version="1.1" id="Capa_1" xmlns="http://www.w3.org/2000/svg" xmlns:xlink="http://www.w3.org/1999/xlink" x="0px" y="0px"
	 viewBox="0 0 476.209 476.209" style="enable-background:new 0 0 476.209 476.209;" xml:space="preserve">
<g>
	<path d="M475.232,228.727c-1.26-2.128-3.55-3.434-6.023-3.434h-91.625c-2.51,0-4.827,1.343-6.074,3.521l-17.419,30.415h-7.985
		v-69.216c0-3.866-3.134-7-7-7H222.897v-16.784c0-3.866-3.134-7-7-7h-20.792v-28.75c0-3.866-3.134-7-7-7h-36.5c-3.866,0-7,3.134-7,7
		v28.75H92.69c-3.866,0-7,3.134-7,7v93H74.197l-4.434-7.875c-1.24-2.203-3.572-3.566-6.1-3.566H7c-2.398,0-4.63,1.228-5.914,3.254
		c-1.283,2.026-1.44,4.568-0.415,6.737l42.977,90.941c1.157,2.448,3.621,4.009,6.329,4.009H407c2.556,0,4.909-1.393,6.138-3.634
		l62.209-113.436C476.536,233.491,476.493,230.855,475.232,228.727z M332.104,197.014v62.216H222.897v-62.216H332.104z
		 M99.69,173.229h51.915h36.5h20.792v16.784v69.216H99.69V173.229z M83.604,295.097c-5.018,0-9.085-4.067-9.085-9.085
		c0-5.018,4.068-9.086,9.085-9.086s9.085,4.068,9.085,9.086C92.69,291.029,88.622,295.097,83.604,295.097z M134.704,295.097
		c-5.018,0-9.085-4.067-9.085-9.085c0-5.018,4.068-9.086,9.085-9.086c5.018,0,9.085,4.068,9.085,9.086
		C143.79,291.029,139.722,295.097,134.704,295.097z M185.805,295.097c-5.018,0-9.085-4.067-9.085-9.085
		c0-5.018,4.068-9.086,9.085-9.086c5.018,0,9.085,4.068,9.085,9.086C194.89,291.029,190.822,295.097,185.805,295.097z
		 M236.904,295.097c-5.018,0-9.085-4.067-9.085-9.085c0-5.018,4.068-9.086,9.085-9.086c5.018,0,9.085,4.068,9.085,9.086
		C245.99,291.029,241.922,295.097,236.904,295.097z M288.004,295.097c-5.018,0-9.085-4.067-9.085-9.085
		c0-5.018,4.068-9.086,9.085-9.086s9.086,4.068,9.086,9.086C297.09,291.029,293.022,295.097,288.004,295.097z M339.104,295.097
		c-5.018,0-9.085-4.067-9.085-9.085c0-5.018,4.068-9.086,9.085-9.086s9.085,4.068,9.085,9.086
		C348.19,291.029,344.122,295.097,339.104,295.097z"/>
	<path d="M120.821,185.02h-2.051c-3.866,0-7,3.134-7,7v9.229c0,3.866,3.134,7,7,7h2.051c3.866,0,7-3.134,7-7v-9.229
		C127.821,188.154,124.687,185.02,120.821,185.02z"/>
	<path d="M143.819,185.02h-2.051c-3.866,0-7,3.134-7,7v9.229c0,3.866,3.134,7,7,7h2.051c3.866,0,7-3.134,7-7v-9.229
		C150.819,188.154,147.686,185.02,143.819,185.02z"/>
	<path d="M166.818,185.02h-2.051c-3.866,0-7,3.134-7,7v9.229c0,3.866,3.134,7,7,7h2.051c3.866,0,7-3.134,7-7v-9.229
		C173.818,188.154,170.684,185.02,166.818,185.02z"/>
	<path d="M189.817,185.02h-2.051c-3.866,0-7,3.134-7,7v9.229c0,3.866,3.134,7,7,7h2.051c3.866,0,7-3.134,7-7v-9.229
		C196.817,188.154,193.683,185.02,189.817,185.02z"/>
	<path d="M241.977,230.401h2.051c3.866,0,7-3.134,7-7v-9.229c0-3.866-3.134-7-7-7h-2.051c-3.866,0-7,3.134-7,7v9.229
		C234.977,227.268,238.111,230.401,241.977,230.401z"/>
	<path d="M264.975,230.401h2.051c3.866,0,7-3.134,7-7v-9.229c0-3.866-3.134-7-7-7h-2.051c-3.866,0-7,3.134-7,7v9.229
		C257.975,227.268,261.109,230.401,264.975,230.401z"/>
	<path d="M287.974,230.401h2.051c3.866,0,7-3.134,7-7v-9.229c0-3.866-3.134-7-7-7h-2.051c-3.866,0-7,3.134-7,7v9.229
		C280.974,227.268,284.108,230.401,287.974,230.401z"/>
	<path d="M310.974,230.401h2.051c3.866,0,7-3.134,7-7v-9.229c0-3.866-3.134-7-7-7h-2.051c-3.866,0-7,3.134-7,7v9.229
		C303.974,227.268,307.107,230.401,310.974,230.401z"/>
</g>
<g>
</g>
<g>
</g>
<g>
</g>
<g>
</g>
<g>
</g>
<g>
</g>
<g>
</g>
<g>
</g>
<g>
</g>
<g>
</g>
<g>
</g>
<g>
</g>
<g>
</g>
<g>
</g>
<g>
</g>
</svg>
